<?xml version="1.0" encoding="UTF-8"?>
<!DOCTYPE svg PUBLIC "-//W3C//DTD SVG 1.1//EN" "http://www.w3.org/Graphics/SVG/1.1/DTD/svg11.dtd">
<svg xmlns="http://www.w3.org/2000/svg" version="1.1" width="48px" height="48px" style="shape-rendering:geometricPrecision; text-rendering:geometricPrecision; image-rendering:optimizeQuality; fill-rule:evenodd; clip-rule:evenodd" xmlns:xlink="http://www.w3.org/1999/xlink">
<g><path style="opacity:0.944" fill="#f24f82" d="M 1.5,3.5 C 4.24688,3.18665 6.91355,3.51998 9.5,4.5C 9.83333,5.16667 10.1667,5.83333 10.5,6.5C 20.8119,7.49862 31.1452,7.83195 41.5,7.5C 40.0942,13.8181 37.4275,19.6515 33.5,25C 27.8333,25.3333 22.1667,25.6667 16.5,26C 15.6433,26.6891 14.9767,27.5224 14.5,28.5C 22.1378,29.4975 29.8045,29.8308 37.5,29.5C 37.5,30.8333 37.5,32.1667 37.5,33.5C 28.4938,33.6664 19.4938,33.4998 10.5,33C 9.19551,32.196 8.52884,31.0293 8.5,29.5C 9.75916,26.8273 10.5925,24.1607 11,21.5C 9.06919,17.2075 7.23586,12.8741 5.5,8.5C 4.31116,7.57131 2.97782,7.23798 1.5,7.5C 1.5,6.16667 1.5,4.83333 1.5,3.5 Z M 12.5,11.5 C 20.1739,11.3336 27.8406,11.5003 35.5,12C 33.4552,14.5864 31.7885,17.4198 30.5,20.5C 25.8687,21.6616 21.202,21.8283 16.5,21C 15.0251,17.8847 13.6918,14.718 12.5,11.5 Z"/></g>
<g><path style="opacity:0.907" fill="#f24f80" d="M 10.5,35.5 C 17.1584,34.3445 19.1584,36.8445 16.5,43C 9.74962,44.4689 7.74962,41.9689 10.5,35.5 Z"/></g>
<g><path style="opacity:0.907" fill="#f24f80" d="M 30.5,35.5 C 37.1584,34.3445 39.1584,36.8445 36.5,43C 29.7496,44.4689 27.7496,41.9689 30.5,35.5 Z"/></g>
</svg>
